<svg xmlns="http://www.w3.org/2000/svg" viewBox="0 0 512 512"><defs><linearGradient id="g" x1="0" y1="0" x2="1" y2="1"><stop stop-color="#10d9c4"/><stop offset="1" stop-color="#1677ff"/></linearGradient><radialGradient id="b"><stop stop-color="#153c62"/><stop offset="1" stop-color="#07101d"/></radialGradient></defs><rect width="512" height="512" rx="118" fill="url(#b)"/><path d="M118 170c76-68 200-68 276 0M163 219c51-45 135-45 186 0M210 268c26-22 66-22 92 0" fill="none" stroke="url(#g)" stroke-width="32" stroke-linecap="round"/><circle cx="256" cy="310" r="18" fill="#5ff6e1"/><path d="M118 357l35-60c9-15 25-24 42-24h122c17 0 33 9 42 24l35 60v55c0 12-10 22-22 22h-21c-12 0-22-10-22-22v-7H183v7c0 12-10 22-22 22h-21c-12 0-22-10-22-22z" fill="#f7fbff"/><path d="M169 351h174l-21-38H190z" fill="#0d2740"/><circle cx="168" cy="380" r="18" fill="#1677ff"/><circle cx="344" cy="380" r="18" fill="#1677ff"/></svg>